<?xml version="1.0" standalone="no"?><!DOCTYPE svg PUBLIC "-//W3C//DTD SVG 1.1//EN" "http://www.w3.org/Graphics/SVG/1.1/DTD/svg11.dtd"><svg t="1733969052230" class="icon" viewBox="0 0 1024 1024" version="1.1" xmlns="http://www.w3.org/2000/svg" p-id="1899" xmlns:xlink="http://www.w3.org/1999/xlink" width="200" height="200"><path d="M158.39 460a55.12 55.12 0 0 1-55.05-55V165.07A55.12 55.12 0 0 1 158.39 110h705.25a55.12 55.12 0 0 1 55.05 55.05V405a55.12 55.12 0 0 1-55.05 55z m29.39-298.65c-19.49 0-33.1 13.61-33.1 33.1v181.12c0 19.49 13.61 33.1 33.1 33.1h646.47c19.49 0 33.1-13.61 33.1-33.1V194.46c0-19.49-13.61-33.1-33.1-33.1zM153.59 925.59A56 56 0 0 1 97.7 869.7V620.75a56 56 0 0 1 55.89-55.89h714.85a56 56 0 0 1 55.89 55.89V869.7a56 56 0 0 1-55.89 55.89z m29.79-308.52c-16.1 0-33.47 15-33.47 39.26v183.58c0 19.71 13.76 33.47 33.47 33.47h655.28c19.71 0 33.47-13.76 33.47-33.47V656.34c0-24.25-17.37-39.26-33.47-39.26z" p-id="1900" fill="#1296db"></path><path d="M235.27 236.98h55.78v96.07h-55.78zM235.27 697.19h55.78v96.07h-55.78z" p-id="1901" fill="#1296db"></path></svg>