<svg width="241" height="57" viewBox="0 0 241 57" fill="none" xmlns="http://www.w3.org/2000/svg">
<path fill-rule="evenodd" clip-rule="evenodd" d="M151.609 39.1904V16.6001H168.079V39.1904H151.609ZM168.079 39.1904L173.38 39.1899V16.6001H168.079V11.3003H151.609V0H146.31V44.48H151.609V44.4902H168.079V39.1904ZM5.95996 11.3003H27.7695V16.6001H5.95996V11.3003ZM0.450195 16.77H5.9502V22.0698H0.450195V16.77ZM21.9297 22.0601H5.95996V27.3599L21.9199 27.3604V39.1904H0V44.4902H21.9297V39.1904H27.2197V27.3604L21.9297 27.3599V22.0601ZM45.1797 32.77C48.334 32.77 51.4785 31.4951 54.7998 30.1475L54.8203 30.1401C58.6299 28.5898 62.9502 26.8398 67.9404 26.8398C70.3896 26.8398 72.0195 27 73.2695 27.2603C72.2402 23.2402 69.9795 19.4102 67.46 16.3901C66.5303 15.2803 65.5303 14.2002 64.4502 13.2402L64.3066 13.1094L64.2139 13.0234C63.7715 12.6133 63.2178 12.0996 62.6699 11.9902C61.8477 11.8257 60.5605 12.3662 59.3926 12.688C58.9268 12.8164 58.4805 12.9102 58.0898 12.9102C57.4043 12.9102 56.6602 12.5103 55.915 12.1104C55.1699 11.71 54.4258 11.3101 53.7402 11.3101C53.0234 11.3101 52.1787 11.7476 51.3721 12.165C50.959 12.3789 50.5557 12.5879 50.1855 12.73C49.8965 12.8403 49.6279 12.9102 49.3896 12.9102C49.1025 12.9102 48.7861 12.8516 48.4541 12.7642C48.1289 12.6787 47.7891 12.5654 47.4482 12.4517C47.1357 12.3472 46.8223 12.2427 46.5205 12.1597C46.293 12.0972 46.0713 12.0469 45.8604 12.0176C45.7334 12 45.6094 11.9902 45.4902 11.9902C45.2881 11.9902 45.0918 12.0161 44.9014 12.0635C44.6689 12.1211 44.4453 12.2104 44.2314 12.3228C43.6211 12.6426 43.083 13.1499 42.6201 13.6499C38.7002 17.8901 34.7598 23.1602 34 28.9702C37.9971 31.7183 40.9141 32.7686 45.1797 32.77ZM67.9404 29.8398C63.54 29.8398 59.6797 31.4102 55.9502 32.9199C52.3398 34.3901 48.9297 35.77 45.1797 35.77C40.79 35.77 37.5996 34.77 33.96 32.5303C34.04 33.2603 34.1504 34 34.3496 34.7402C36.2197 41.75 43.7803 44.6699 50.3203 45.3501C53.75 45.71 57.2295 45.5898 60.6201 45C64.0195 44.4102 67.5 43.3198 70.0703 40.9102C71.0898 39.9502 71.9199 38.8198 72.5195 37.5601C73.6201 35.29 73.9795 32.8999 73.8096 30.5C72.5898 30.0898 71.0596 29.8203 67.9404 29.8203V29.8398ZM85.5693 39.1904H96.9092L96.9102 33.9004H102.74V11.3003H108.04V44.4702H102.74V39.2002H96.9102L96.9092 44.4902H85.5693V39.1904ZM85.5693 11.3003V39.1904H80.2695V11.3003H85.5693ZM195.81 39.1904H184.63V11.3003H179.33V39.1904H184.63V44.4902H195.81V39.1904ZM223.6 11.3003H234.779V16.6001H223.6V21.3999H217.609V44.4902H212.31V11.3003H217.609V16.1001H223.6V11.3003ZM234.779 16.6001H240.08V44.4902H234.78L234.779 16.6001ZM201.8 44.4902V39.2002H195.819V33.9004H201.8V11.3003H207.1V44.4902H201.8ZM118.72 11.3003H134.979V16.6001H140.27V39.1899L134.979 39.1904V44.4902H118.72V56.2002H113.42V11.3003H118.72ZM118.72 16.6001V39.1904L134.97 39.1899V16.6001H118.72Z" fill="url(#paint0_linear_887_259)"/>
<defs>
<linearGradient id="paint0_linear_887_259" x1="113.42" y1="3.5" x2="113.42" y2="56" gradientUnits="userSpaceOnUse">
<stop stop-color="#FBD191"/>
<stop offset="0.495" stop-color="#CE76CD"/>
<stop offset="1" stop-color="#6E7BD7"/>
</linearGradient>
</defs>
</svg>
