<svg width="178" height="178" viewBox="0 0 178 178" fill="none" xmlns="http://www.w3.org/2000/svg">
<path opacity="0.989" fill-rule="evenodd" clip-rule="evenodd" d="M80.0259 0C80.0948 0 80.1638 0 80.2327 0C80.5162 0.266269 80.8954 0.404214 81.37 0.413836C81.749 0.379349 82.1283 0.344864 82.5073 0.310377C82.3924 0.231215 82.3235 0.127756 82.3005 0C87.3322 0 92.3642 0 97.3959 0C120.109 2.79335 139.236 12.5185 154.779 29.1754C167.138 43.1747 174.582 59.5212 177.112 78.215C179.506 103.093 173.096 125.302 157.881 144.843C137.269 169.016 110.973 179.811 78.992 177.225C77.0062 176.853 75.0072 176.577 72.9952 176.398C71.0791 175.918 69.149 175.504 67.2052 175.156C66.5398 174.97 65.9194 174.728 65.3441 174.432C65.4622 174.047 65.4622 173.702 65.3441 173.397C84.3887 165.88 101.483 155.292 116.627 141.635C118.93 139.606 121.102 137.434 123.141 135.117C125.965 131.911 128.757 128.67 131.515 125.392C141.264 112.848 145.641 98.5704 144.646 82.5603C142.49 71.7813 136.804 63.4011 127.587 57.4198C121.722 53.94 115.449 51.457 108.769 49.9707C100.302 48.2442 91.755 47.52 83.1277 47.7981C88.8385 49.3806 94.2149 51.6912 99.2569 54.7298C110.206 62.5546 113.825 73.004 110.113 86.0779C108.881 89.1438 107.433 92.1096 105.771 94.9754C102.29 100.118 98.1885 104.774 93.4669 108.942C80.8867 119.569 66.6874 127.432 50.8692 132.531C39.9096 136.324 28.7432 139.359 17.37 141.635C11.1061 133.273 6.45342 124.065 3.41196 114.012C2.61267 111.078 1.92339 108.112 1.3441 105.114C0.882926 102.056 0.434892 99.0208 0 96.01C0 91.3889 0 86.7676 0 82.1465C3.11989 51.6561 17.6638 28.3087 43.6317 12.1047C54.7334 5.66751 66.7269 1.73607 79.6123 0.310377C79.8017 0.252767 79.9395 0.149308 80.0259 0ZM101.738 13.0358C112.02 12.6127 121.739 14.7853 130.895 19.5538C137.271 23.1748 142.268 28.1754 145.887 34.5553C148.813 41.0221 149.744 47.7815 148.679 54.8333C144.815 51.0057 140.542 47.7294 135.858 45.0047C130.298 41.879 124.508 39.189 118.488 36.9349C101.015 32.3891 83.9209 33.4926 67.2052 40.2456C59.7059 43.6212 53.6058 48.6218 48.9047 55.2471C47.0108 58.2454 45.5287 61.4526 44.4588 64.8688C44.5277 65.0412 44.5968 65.2137 44.6656 65.3861C53.014 55.3951 63.56 52.0498 76.3038 55.3506C84.3521 58.2336 89.0047 63.9238 90.2618 72.4213C90.5451 77.3665 89.0285 81.6426 85.7125 85.2502C82.247 88.7825 78.1458 91.369 73.4088 93.0097C66.5146 94.5212 59.6216 94.5212 52.7302 93.0097C43.3366 90.3355 36.9608 84.4383 33.6026 75.3182C31.5405 67.8244 31.8853 60.4443 34.6365 53.1779C38.6531 43.3684 44.9601 35.402 53.5574 29.2789C61.2134 24.1389 69.4848 20.2074 78.3716 17.4846C81.1059 16.5966 83.8632 15.8379 86.643 15.2085C91.684 14.3587 96.716 13.6345 101.738 13.0358Z" fill="#FFA07A"/>
</svg>
